# xmcd
#
# Track frame offsets: 
#        150
#        22730
#        48680
#        75840
#        96847
#        125500
#        151432
#        183847
#        207412
#        246730
#
# Disc length: 3496 seconds
#
# Revision: 2
# Processed by: cddbd v1.5.1PL0 Copyright (c) Steve Scherf et al.
# Submitted via: ExactAudioCopy v0.95b3
#
DISCID=7e0da60a
DTITLE=Reverend Gary Davis - Live and Kickin
DYEAR=1967
DGENRE=Blues
TTITLE0=Make Believe Stunt
TTITLE1=Maple Leaf Rag
TTITLE2=Coon Chase
TTITLE3=Samson And Delilah
TTITLE4=Twelve Gates To The City
TTITLE5=Mind How You're Living
TTITLE6=You Got To Move
TTITLE7=How Much We Can Bear
TTITLE8=I Will Do My Last Singing
TTITLE9=Buck Dance
EXTD=\nYEAR: 1967  ID3G:   0
EXTT0=
EXTT1=
EXTT2=
EXTT3=
EXTT4=
EXTT5=
EXTT6=
EXTT7=
EXTT8=
EXTT9=
PLAYORDER=
